# xmcd
#
# Track frame offsets:
#	187
#	16950
#	40987
#	61515
#	86775
#	123217
#	147132
#	165275
#
# Disc length: 2387 seconds
#
# Revision: 1
# Processed by: cddbd v1.5.2PL0 Copyright (c) Steve Scherf et al.
# Submitted via: audiograbber 1.83.01
#
DISCID=58095108
DTITLE=gloria gaynor - love tracks
DYEAR=1900
DGENRE=Disco
TTITLE0=stoplight
TTITLE1=anybody wanna party
TTITLE2=please be there
TTITLE3=goin' out of my head
TTITLE4=i will survive
TTITLE5=you can exit
TTITLE6=i said yes
TTITLE7=substitute
EXTD=
EXTT0=
EXTT1=
EXTT2=
EXTT3=
EXTT4=
EXTT5=
EXTT6=
EXTT7=
PLAYORDER=
